<svg xmlns="http://www.w3.org/2000/svg" viewBox="0 0 900 450" role="img" aria-label="Stylized world map">
  <rect width="900" height="450" fill="#0b1426" />
  <g fill="#27406b" opacity="0.9">
    <path d="M74 230c26-44 78-68 132-76 52-8 112-1 148 32 22 20 28 52 15 76-13 24-43 41-86 48-46 7-96 0-132-18-32-16-51-40-77-62z" />
    <path d="M354 125c22-30 64-45 108-44 42 1 86 17 112 44 23 23 30 55 12 74-19 20-61 24-96 12-36-12-62-38-92-56-19-12-37-21-44-30z" />
    <path d="M500 250c20-26 58-40 98-40 46 0 98 20 130 52 23 23 28 52 7 68-24 18-70 15-110 0-36-14-64-40-98-58-10-6-20-12-27-22z" />
    <path d="M650 140c10-28 40-46 70-54 32-9 66-7 92 6 20 10 24 30 10 46-15 17-44 27-72 28-28 2-60-4-78-14-16-8-24-18-22-12z" />
    <path d="M260 290c18-18 50-28 78-30 34-3 68 5 88 20 16 12 18 30 6 42-12 12-36 18-58 18-28 0-52-8-74-18-16-8-30-18-40-32z" />
  </g>
  <g stroke="#2b4c80" stroke-width="1" opacity="0.6">
    <path d="M0 110h900M0 225h900M0 340h900" />
    <path d="M150 0v450M300 0v450M450 0v450M600 0v450M750 0v450" />
  </g>
</svg>
